<?xml version="1.0" encoding="UTF-8" standalone="no"?>
<svg
   xmlns:dc="http://purl.org/dc/elements/1.1/"
   xmlns:cc="http://creativecommons.org/ns#"
   xmlns:rdf="http://www.w3.org/1999/02/22-rdf-syntax-ns#"
   xmlns:svg="http://www.w3.org/2000/svg"
   xmlns="http://www.w3.org/2000/svg"
   xmlns:sodipodi="http://sodipodi.sourceforge.net/DTD/sodipodi-0.dtd"
   xmlns:inkscape="http://www.inkscape.org/namespaces/inkscape"
   version="1.1"
   width="24"
   height="24"
   viewBox="0 0 24 24"
   id="svg4"
   sodipodi:docname="icon.svg"
   inkscape:export-filename="/home/david/MozillaAddOns/IncidenciasCyL/icons/icon-128.png"
   inkscape:export-xdpi="512"
   inkscape:export-ydpi="512"
   inkscape:version="0.92.2 5c3e80d, 2017-08-06">
  <metadata
     id="metadata10">
    <rdf:RDF>
      <cc:Work
         rdf:about="">
        <dc:format>image/svg+xml</dc:format>
        <dc:type
           rdf:resource="http://purl.org/dc/dcmitype/StillImage" />
        <dc:title></dc:title>
      </cc:Work>
    </rdf:RDF>
  </metadata>
  <defs
     id="defs8" />
  <sodipodi:namedview
     pagecolor="#ffffff"
     bordercolor="#666666"
     borderopacity="1"
     objecttolerance="10"
     gridtolerance="10"
     guidetolerance="10"
     inkscape:pageopacity="0"
     inkscape:pageshadow="2"
     inkscape:window-width="1440"
     inkscape:window-height="847"
     id="namedview6"
     showgrid="false"
     inkscape:zoom="9.8333333"
     inkscape:cx="11.898305"
     inkscape:cy="12"
     inkscape:window-x="0"
     inkscape:window-y="0"
     inkscape:window-maximized="1"
     inkscape:current-layer="svg4" />
  <path
     d="M5,14H19L17.5,9.5H6.5L5,14M17.5,19A1.5,1.5 0 0,0 19,17.5A1.5,1.5 0 0,0 17.5,16A1.5,1.5 0 0,0 16,17.5A1.5,1.5 0 0,0 17.5,19M6.5,19A1.5,1.5 0 0,0 8,17.5A1.5,1.5 0 0,0 6.5,16A1.5,1.5 0 0,0 5,17.5A1.5,1.5 0 0,0 6.5,19M18.92,9L21,15V23A1,1 0 0,1 20,24H19A1,1 0 0,1 18,23V22H6V23A1,1 0 0,1 5,24H4A1,1 0 0,1 3,23V15L5.08,9C5.28,8.42 5.85,8 6.5,8H17.5C18.15,8 18.72,8.42 18.92,9M12,0C14.12,0 16.15,0.86 17.65,2.35L16.23,3.77C15.11,2.65 13.58,2 12,2C10.42,2 8.89,2.65 7.77,3.77L6.36,2.35C7.85,0.86 9.88,0 12,0M12,4C13.06,4 14.07,4.44 14.82,5.18L13.4,6.6C13.03,6.23 12.53,6 12,6C11.5,6 10.97,6.23 10.6,6.6L9.18,5.18C9.93,4.44 10.94,4 12,4Z"
     id="path2"
     style="fill:#009b48;fill-opacity:1" />
</svg>
